<svg xmlns="http://www.w3.org/2000/svg" xmlns:xlink="http://www.w3.org/1999/xlink" width="156" height="140" fill="none" xmlns:v="https://vecta.io/nano"><path fill="url(#A)" d="M24.157 12.359h131.447v126.953H24.157z" opacity=".25"/><path fill="url(#B)" d="M0 0h117.404v139.312H0z" opacity=".25"/><path d="M66.708 97.017s34.407-6.905 43.067-22.119c5.618-9.947 3.979-19.778-7.49-25.629-11.468-5.968-20.012 2.926-20.012 2.926S80.869 39.907 68.23 37.449c-12.639-2.341-20.129 4.33-21.767 15.565-2.575 17.437 20.246 44.003 20.246 44.003z" fill="url(#C)"/><path d="M82.156 52.195S80.869 39.907 68.23 37.449c-12.639-2.341-20.129 4.33-21.767 15.565-2.575 17.437 20.246 44.003 20.246 44.003l15.448-44.822z" fill="url(#D)"/><defs><pattern id="A" patternContentUnits="objectBoundingBox" width="1" height="1"><use xlink:href="#E"/></pattern><pattern id="B" patternContentUnits="objectBoundingBox" width="1" height="1"><use xlink:href="#F"/></pattern><linearGradient id="C" x1="43.889" y1="59.019" x2="108.043" y2="81.18" gradientUnits="userSpaceOnUse"><stop stop-color="#8c3141"/><stop offset="1" stop-color="#fa5672"/></linearGradient><linearGradient id="D" x1="50.817" y1="68.906" x2="76.818" y2="65.25" gradientUnits="userSpaceOnUse"><stop stop-color="#bb4156"/><stop offset="1" stop-color="#fa5672"/></linearGradient></defs></svg>